<mxfile host="app.diagrams.net" modified="2023-09-30T17:31:25.773Z" agent="Mozilla/5.0 (Windows NT 10.0; Win64; x64) AppleWebKit/537.36 (KHTML, like Gecko) Chrome/117.0.0.0 Safari/537.36" etag="dlOkOHwP6co3PXFtBwSw" version="21.7.5" type="device">
  <diagram name="Page-1" id="5n4Q_kPgomkOV22j6i_L">
    <mxGraphModel dx="1173" dy="627" grid="1" gridSize="10" guides="1" tooltips="1" connect="1" arrows="1" fold="1" page="1" pageScale="1" pageWidth="850" pageHeight="1100" math="0" shadow="0">
      <root>
        <mxCell id="0" />
        <mxCell id="1" parent="0" />
        <mxCell id="ZP-lOoIfoTtW22RDW0wM-60" value="User" style="shape=umlActor;verticalLabelPosition=bottom;verticalAlign=top;html=1;outlineConnect=0;strokeColor=#006658;fillColor=#21C0A5;labelBackgroundColor=none;fontColor=#5C5C5C;" vertex="1" parent="1">
          <mxGeometry x="50" y="140" width="50" height="150" as="geometry" />
        </mxCell>
        <mxCell id="ZP-lOoIfoTtW22RDW0wM-63" value="&lt;font face=&quot;Times New Roman&quot;&gt;Image Enhancement&lt;/font&gt;" style="ellipse;whiteSpace=wrap;html=1;strokeColor=#006658;fillColor=#21C0A5;labelBackgroundColor=none;fontColor=#5C5C5C;" vertex="1" parent="1">
          <mxGeometry x="390" y="20" width="140" height="70" as="geometry" />
        </mxCell>
        <mxCell id="ZP-lOoIfoTtW22RDW0wM-64" value="&lt;font face=&quot;Times New Roman&quot;&gt;Image Segmentation&lt;/font&gt;" style="ellipse;whiteSpace=wrap;html=1;strokeColor=#006658;fillColor=#21C0A5;labelBackgroundColor=none;fontColor=#5C5C5C;" vertex="1" parent="1">
          <mxGeometry x="390" y="110" width="140" height="70" as="geometry" />
        </mxCell>
        <mxCell id="ZP-lOoIfoTtW22RDW0wM-65" value="&lt;font face=&quot;Times New Roman&quot;&gt;Feature Extraction&lt;/font&gt;" style="ellipse;whiteSpace=wrap;html=1;strokeColor=#006658;fillColor=#21C0A5;labelBackgroundColor=none;fontColor=#5C5C5C;" vertex="1" parent="1">
          <mxGeometry x="390" y="200" width="140" height="70" as="geometry" />
        </mxCell>
        <mxCell id="ZP-lOoIfoTtW22RDW0wM-66" value="Classification" style="ellipse;whiteSpace=wrap;html=1;strokeColor=#006658;fillColor=#21C0A5;labelBackgroundColor=none;fontColor=#5C5C5C;" vertex="1" parent="1">
          <mxGeometry x="390" y="300" width="140" height="70" as="geometry" />
        </mxCell>
        <mxCell id="ZP-lOoIfoTtW22RDW0wM-67" value="&lt;font face=&quot;Times New Roman&quot;&gt;Image Acquisition&lt;/font&gt;" style="ellipse;whiteSpace=wrap;html=1;strokeColor=#006658;fillColor=#21C0A5;labelBackgroundColor=none;fontColor=#5C5C5C;" vertex="1" parent="1">
          <mxGeometry x="180" y="190" width="140" height="70" as="geometry" />
        </mxCell>
        <mxCell id="ZP-lOoIfoTtW22RDW0wM-68" value="&lt;font face=&quot;Times New Roman&quot;&gt;Result&lt;/font&gt;" style="ellipse;whiteSpace=wrap;html=1;strokeColor=#006658;fillColor=#21C0A5;labelBackgroundColor=none;fontColor=#5C5C5C;" vertex="1" parent="1">
          <mxGeometry x="640" y="170" width="140" height="70" as="geometry" />
        </mxCell>
        <mxCell id="ZP-lOoIfoTtW22RDW0wM-72" value="" style="endArrow=open;endFill=1;endSize=12;html=1;rounded=0;strokeColor=#006658;fontColor=default;exitX=1;exitY=0.5;exitDx=0;exitDy=0;entryX=0.074;entryY=0.795;entryDx=0;entryDy=0;entryPerimeter=0;fillColor=#21C0A5;labelBackgroundColor=none;" edge="1" parent="1" source="ZP-lOoIfoTtW22RDW0wM-67" target="ZP-lOoIfoTtW22RDW0wM-63">
          <mxGeometry width="160" relative="1" as="geometry">
            <mxPoint x="590" y="300" as="sourcePoint" />
            <mxPoint x="750" y="300" as="targetPoint" />
          </mxGeometry>
        </mxCell>
        <mxCell id="ZP-lOoIfoTtW22RDW0wM-73" value="" style="endArrow=open;endFill=1;endSize=12;html=1;rounded=0;strokeColor=#006658;fontColor=default;exitX=1;exitY=0.5;exitDx=0;exitDy=0;fillColor=#21C0A5;labelBackgroundColor=none;" edge="1" parent="1" source="ZP-lOoIfoTtW22RDW0wM-67" target="ZP-lOoIfoTtW22RDW0wM-64">
          <mxGeometry width="160" relative="1" as="geometry">
            <mxPoint x="590" y="300" as="sourcePoint" />
            <mxPoint x="750" y="300" as="targetPoint" />
          </mxGeometry>
        </mxCell>
        <mxCell id="ZP-lOoIfoTtW22RDW0wM-74" value="" style="endArrow=open;endFill=1;endSize=12;html=1;rounded=0;strokeColor=#006658;fontColor=default;entryX=0;entryY=0.5;entryDx=0;entryDy=0;fillColor=#21C0A5;labelBackgroundColor=none;" edge="1" parent="1" target="ZP-lOoIfoTtW22RDW0wM-65">
          <mxGeometry width="160" relative="1" as="geometry">
            <mxPoint x="320" y="230" as="sourcePoint" />
            <mxPoint x="750" y="300" as="targetPoint" />
          </mxGeometry>
        </mxCell>
        <mxCell id="ZP-lOoIfoTtW22RDW0wM-75" value="" style="endArrow=open;endFill=1;endSize=12;html=1;rounded=0;strokeColor=#006658;fontColor=default;exitX=0.993;exitY=0.633;exitDx=0;exitDy=0;exitPerimeter=0;entryX=0.026;entryY=0.319;entryDx=0;entryDy=0;entryPerimeter=0;fillColor=#21C0A5;labelBackgroundColor=none;" edge="1" parent="1" source="ZP-lOoIfoTtW22RDW0wM-67" target="ZP-lOoIfoTtW22RDW0wM-66">
          <mxGeometry width="160" relative="1" as="geometry">
            <mxPoint x="590" y="300" as="sourcePoint" />
            <mxPoint x="750" y="300" as="targetPoint" />
          </mxGeometry>
        </mxCell>
        <mxCell id="ZP-lOoIfoTtW22RDW0wM-76" value="" style="endArrow=open;endFill=1;endSize=12;html=1;rounded=0;strokeColor=#006658;fontColor=default;exitX=0.979;exitY=0.395;exitDx=0;exitDy=0;exitPerimeter=0;entryX=0.069;entryY=0.862;entryDx=0;entryDy=0;entryPerimeter=0;fillColor=#21C0A5;labelBackgroundColor=none;" edge="1" parent="1" source="ZP-lOoIfoTtW22RDW0wM-66" target="ZP-lOoIfoTtW22RDW0wM-68">
          <mxGeometry width="160" relative="1" as="geometry">
            <mxPoint x="590" y="300" as="sourcePoint" />
            <mxPoint x="750" y="300" as="targetPoint" />
          </mxGeometry>
        </mxCell>
        <mxCell id="ZP-lOoIfoTtW22RDW0wM-77" value="" style="endArrow=open;endFill=1;endSize=12;html=1;rounded=0;strokeColor=#006658;fontColor=default;exitX=0.969;exitY=0.643;exitDx=0;exitDy=0;exitPerimeter=0;fillColor=#21C0A5;labelBackgroundColor=none;" edge="1" parent="1" source="ZP-lOoIfoTtW22RDW0wM-65" target="ZP-lOoIfoTtW22RDW0wM-68">
          <mxGeometry width="160" relative="1" as="geometry">
            <mxPoint x="590" y="300" as="sourcePoint" />
            <mxPoint x="750" y="300" as="targetPoint" />
          </mxGeometry>
        </mxCell>
        <mxCell id="ZP-lOoIfoTtW22RDW0wM-78" value="" style="endArrow=open;endFill=1;endSize=12;html=1;rounded=0;strokeColor=#006658;fontColor=default;exitX=0.979;exitY=0.633;exitDx=0;exitDy=0;exitPerimeter=0;entryX=0;entryY=0.5;entryDx=0;entryDy=0;fillColor=#21C0A5;labelBackgroundColor=none;" edge="1" parent="1" source="ZP-lOoIfoTtW22RDW0wM-64" target="ZP-lOoIfoTtW22RDW0wM-68">
          <mxGeometry width="160" relative="1" as="geometry">
            <mxPoint x="590" y="300" as="sourcePoint" />
            <mxPoint x="750" y="300" as="targetPoint" />
          </mxGeometry>
        </mxCell>
        <mxCell id="ZP-lOoIfoTtW22RDW0wM-79" value="" style="endArrow=open;endFill=1;endSize=12;html=1;rounded=0;strokeColor=#006658;fontColor=default;exitX=0.96;exitY=0.7;exitDx=0;exitDy=0;exitPerimeter=0;fillColor=#21C0A5;labelBackgroundColor=none;" edge="1" parent="1" source="ZP-lOoIfoTtW22RDW0wM-63">
          <mxGeometry width="160" relative="1" as="geometry">
            <mxPoint x="590" y="300" as="sourcePoint" />
            <mxPoint x="640" y="190" as="targetPoint" />
          </mxGeometry>
        </mxCell>
        <mxCell id="ZP-lOoIfoTtW22RDW0wM-80" value="" style="endArrow=open;endFill=1;endSize=12;html=1;rounded=0;strokeColor=#006658;fontColor=default;entryX=0;entryY=0.5;entryDx=0;entryDy=0;fillColor=#21C0A5;labelBackgroundColor=none;" edge="1" parent="1" target="ZP-lOoIfoTtW22RDW0wM-67">
          <mxGeometry width="160" relative="1" as="geometry">
            <mxPoint x="90" y="225" as="sourcePoint" />
            <mxPoint x="750" y="300" as="targetPoint" />
          </mxGeometry>
        </mxCell>
      </root>
    </mxGraphModel>
  </diagram>
</mxfile>
